# xmcd
# 
# Track frame offsets:
#     150
#     11972
#     24776
#     36029
#     49038
#     58983
#     71351
#     85652
#     98162
#     111620
#     123656
#     136047
#     147336
#     159055
#     171024
#     184366
#     195702
#     208885
#     221574
#     233020
#     245106
#     258754
#     272074
#     284465
#     297206
#     310667
#     323966
#     336748
# 
# Disc length: 4660
# 
# Revision: 6
# Processed by: cddbd v1.5.2PL0 Copyright (c) Steve Scherf et al.
# Submitted via: BonkEnc v1.0.15
# 
DISCID=ab12321c
DTITLE=Various Artist - Tamla Motown Gold [CD1]
DYEAR=2001
DGENRE=Soul
TTITLE0=Barrett Strong - Money (That's What I Want)
TTITLE1=Smokey Robinson and The Miracles - Shop Around
TTITLE2=The Marvelettes - Please Mr. Postman
TTITLE3=The Contours - Do You Love Me
TTITLE4=The Marvelettes - Beechwood 4-5789
TTITLE5=Marvin Gaye - Stubborn Kind Of Fellow
TTITLE6=Stevie Wonder - Fingertips (Part 2)
TTITLE7=Martha Reeves and The Vandellas - (Love Is Like A) Heatwave
TTITLE8=Marvin Gaye - How Sweet It Is (To Be Loved By You)
TTITLE9=The Temptations - The Way You Do The Things You Do
TTITLE10=Four Tops - Baby I Need Your Loving
TTITLE11=The Velvelettes - Needle In A Haystack
TTITLE12=Diana Ross and The Supremes - Baby Love
TTITLE13=Martha Reeves and The Vandellas - Dancing In The Street
TTITLE14=Brenda Holloway - Every Little Bit Hurts
TTITLE15=Diana Ross and The Supremes - Where Did Our Love Go
TTITLE16=The Temptations - My Girl
TTITLE17=Mary Wells - My Guy
TTITLE18=The Velvelettes - He Was Really Sayin' Somethin'
TTITLE19=Diana Ross and The Supremes - Come See About Me
TTITLE20=Smokey Robinson and The Miracles - The Tracks Of My Tears
TTITLE21=Martha Reeves and The Vandellas - Nowhere To Run
TTITLE22=Four Tops - I Can't Help Myself (Sugar Pie, Honey Bunch)
TTITLE23=Diana Ross and The Supremes - Stop! In The Name Of Love
TTITLE24=Jnr Walker and The All Stars - Shotgun
TTITLE25=Kim Western - Take Me In Your Arms (Rock Me A Little While)
TTITLE26=Diana Ross and The Supremes - Back In My Arms Again
TTITLE27=Smokey Robinson and The Miracles - Going To A Go-Go
EXTD=
EXTT0=
EXTT1=
EXTT2=
EXTT3=
EXTT4=
EXTT5=
EXTT6=
EXTT7=
EXTT8=
EXTT9=
EXTT10=
EXTT11=
EXTT12=
EXTT13=
EXTT14=
EXTT15=
EXTT16=
EXTT17=
EXTT18=
EXTT19=
EXTT20=
EXTT21=
EXTT22=
EXTT23=
EXTT24=
EXTT25=
EXTT26=
EXTT27=
PLAYORDER=
